<?xml version="1.0" encoding="UTF-8" standalone="no"?>
<!-- Created with Inkscape (http://www.inkscape.org/) -->

<svg
   xmlns:dc="http://purl.org/dc/elements/1.1/"
   xmlns:cc="http://creativecommons.org/ns#"
   xmlns:rdf="http://www.w3.org/1999/02/22-rdf-syntax-ns#"
   xmlns:svg="http://www.w3.org/2000/svg"
   xmlns="http://www.w3.org/2000/svg"
   xmlns:xlink="http://www.w3.org/1999/xlink"
   xmlns:sodipodi="http://sodipodi.sourceforge.net/DTD/sodipodi-0.dtd"
   xmlns:inkscape="http://www.inkscape.org/namespaces/inkscape"
   version="1.0"
   width="24"
   height="24"
   id="svg3256"
   inkscape:version="0.47pre4 r22446"
   sodipodi:docname="RGBEulers.svg"
   inkscape:export-filename="/home/ppinard/documents/workspace/javadev/EBSD-PTP/src/org/ebsdimage/plugin/RGBEulers.png"
   inkscape:export-xdpi="90"
   inkscape:export-ydpi="90">
  <metadata
     id="metadata4541">
    <rdf:RDF>
      <cc:Work
         rdf:about="">
        <dc:format>image/svg+xml</dc:format>
        <dc:type
           rdf:resource="http://purl.org/dc/dcmitype/StillImage" />
        <dc:title></dc:title>
      </cc:Work>
    </rdf:RDF>
  </metadata>
  <sodipodi:namedview
     pagecolor="#ffffff"
     bordercolor="#666666"
     borderopacity="1"
     objecttolerance="10"
     gridtolerance="10"
     guidetolerance="10"
     inkscape:pageopacity="0"
     inkscape:pageshadow="2"
     inkscape:window-width="1280"
     inkscape:window-height="949"
     id="namedview4539"
     showgrid="false"
     inkscape:zoom="15.733333"
     inkscape:cx="15.571167"
     inkscape:cy="11.050847"
     inkscape:window-x="1440"
     inkscape:window-y="25"
     inkscape:window-maximized="1"
     inkscape:current-layer="svg3256" />
  <defs
     id="defs3258">
    <inkscape:perspective
       sodipodi:type="inkscape:persp3d"
       inkscape:vp_x="0 : 240 : 1"
       inkscape:vp_y="0 : 1000 : 0"
       inkscape:vp_z="480 : 240 : 1"
       inkscape:persp3d-origin="240 : 160 : 1"
       id="perspective4543" />
    <linearGradient
       id="linearGradient4116">
      <stop
         id="stop4118"
         style="stop-color:#1a1a1a;stop-opacity:1"
         offset="0" />
      <stop
         id="stop4120"
         style="stop-color:#1a1a1a;stop-opacity:0"
         offset="1" />
    </linearGradient>
    <linearGradient
       id="linearGradient4103">
      <stop
         id="stop4105"
         style="stop-color:#000000;stop-opacity:1"
         offset="0" />
      <stop
         id="stop4107"
         style="stop-color:#7b0000;stop-opacity:0.74137932"
         offset="1" />
    </linearGradient>
    <linearGradient
       id="linearGradient4095">
      <stop
         id="stop4097"
         style="stop-color:#000000;stop-opacity:1"
         offset="0" />
      <stop
         id="stop4099"
         style="stop-color:#800000;stop-opacity:0"
         offset="1" />
    </linearGradient>
    <linearGradient
       id="linearGradient4083">
      <stop
         id="stop4085"
         style="stop-color:#000000;stop-opacity:1"
         offset="0" />
      <stop
         id="stop4087"
         style="stop-color:#727272;stop-opacity:1"
         offset="1" />
    </linearGradient>
    <linearGradient
       id="linearGradient4071">
      <stop
         id="stop4073"
         style="stop-color:#230100;stop-opacity:1"
         offset="0" />
      <stop
         id="stop4075"
         style="stop-color:#95290d;stop-opacity:1"
         offset="1" />
    </linearGradient>
    <linearGradient
       id="linearGradient4063">
      <stop
         id="stop4065"
         style="stop-color:#000000;stop-opacity:1"
         offset="0" />
      <stop
         id="stop4067"
         style="stop-color:#3e78c8;stop-opacity:1;"
         offset="1" />
    </linearGradient>
    <linearGradient
       id="linearGradient4039">
      <stop
         id="stop4041"
         style="stop-color:#0f1604;stop-opacity:1"
         offset="0" />
      <stop
         id="stop4049"
         style="stop-color:#60763a;stop-opacity:1"
         offset="0.46000001" />
      <stop
         id="stop4047"
         style="stop-color:#12e736;stop-opacity:1;"
         offset="0.60718077" />
      <stop
         id="stop4051"
         style="stop-color:#71972a;stop-opacity:1"
         offset="0.66000003" />
      <stop
         id="stop4043"
         style="stop-color:#415c0d;stop-opacity:1"
         offset="1" />
    </linearGradient>
    <linearGradient
       x1="333.83936"
       y1="306.4407"
       x2="331.01694"
       y2="335.27454"
       id="linearGradient4045"
       xlink:href="#linearGradient4039"
       gradientUnits="userSpaceOnUse" />
    <linearGradient
       x1="330.67673"
       y1="321.97855"
       x2="356.8414"
       y2="331.99905"
       id="linearGradient4069"
       xlink:href="#linearGradient4063"
       gradientUnits="userSpaceOnUse" />
    <linearGradient
       x1="437.047"
       y1="396.70428"
       x2="455.04944"
       y2="369.04291"
       id="linearGradient4077"
       xlink:href="#linearGradient4071"
       gradientUnits="userSpaceOnUse" />
    <linearGradient
       x1="311.82489"
       y1="530.43066"
       x2="331.83151"
       y2="530.43066"
       id="linearGradient4089"
       xlink:href="#linearGradient4083"
       gradientUnits="userSpaceOnUse" />
    <linearGradient
       x1="431.97806"
       y1="390.33661"
       x2="122.69199"
       y2="306.83789"
       id="linearGradient4101"
       xlink:href="#linearGradient4095"
       gradientUnits="userSpaceOnUse" />
    <linearGradient
       x1="310.13809"
       y1="212.26282"
       x2="505.25244"
       y2="303.42978"
       id="linearGradient4109"
       xlink:href="#linearGradient4103"
       gradientUnits="userSpaceOnUse" />
    <linearGradient
       x1="157.43237"
       y1="394.90314"
       x2="283.55716"
       y2="529.97296"
       id="linearGradient4122"
       xlink:href="#linearGradient4116"
       gradientUnits="userSpaceOnUse" />
    <linearGradient
       x1="311.82489"
       y1="530.43066"
       x2="331.83151"
       y2="530.43066"
       id="linearGradient4140"
       xlink:href="#linearGradient4083"
       gradientUnits="userSpaceOnUse" />
    <linearGradient
       x1="311.82489"
       y1="530.43066"
       x2="331.83151"
       y2="530.43066"
       id="linearGradient4142"
       xlink:href="#linearGradient4083"
       gradientUnits="userSpaceOnUse" />
    <linearGradient
       x1="333.83936"
       y1="306.4407"
       x2="331.01694"
       y2="335.27454"
       id="linearGradient4144"
       xlink:href="#linearGradient4039"
       gradientUnits="userSpaceOnUse" />
    <linearGradient
       x1="333.83936"
       y1="306.4407"
       x2="331.01694"
       y2="335.27454"
       id="linearGradient4146"
       xlink:href="#linearGradient4039"
       gradientUnits="userSpaceOnUse" />
    <linearGradient
       x1="333.83936"
       y1="306.4407"
       x2="331.01694"
       y2="335.27454"
       id="linearGradient4148"
       xlink:href="#linearGradient4039"
       gradientUnits="userSpaceOnUse" />
    <linearGradient
       x1="333.83936"
       y1="306.4407"
       x2="331.01694"
       y2="335.27454"
       id="linearGradient4150"
       xlink:href="#linearGradient4039"
       gradientUnits="userSpaceOnUse" />
    <linearGradient
       x1="330.67673"
       y1="321.97855"
       x2="356.8414"
       y2="331.99905"
       id="linearGradient4152"
       xlink:href="#linearGradient4063"
       gradientUnits="userSpaceOnUse" />
    <linearGradient
       x1="330.67673"
       y1="321.97855"
       x2="356.8414"
       y2="331.99905"
       id="linearGradient4154"
       xlink:href="#linearGradient4063"
       gradientUnits="userSpaceOnUse" />
    <linearGradient
       x1="330.67673"
       y1="321.97855"
       x2="356.8414"
       y2="331.99905"
       id="linearGradient4156"
       xlink:href="#linearGradient4063"
       gradientUnits="userSpaceOnUse" />
    <linearGradient
       x1="330.67673"
       y1="321.97855"
       x2="356.8414"
       y2="331.99905"
       id="linearGradient4158"
       xlink:href="#linearGradient4063"
       gradientUnits="userSpaceOnUse" />
    <linearGradient
       inkscape:collect="always"
       xlink:href="#linearGradient4083"
       id="linearGradient5116"
       gradientUnits="userSpaceOnUse"
       x1="311.82489"
       y1="530.43066"
       x2="331.83151"
       y2="530.43066" />
    <linearGradient
       inkscape:collect="always"
       xlink:href="#linearGradient4039"
       id="linearGradient5118"
       gradientUnits="userSpaceOnUse"
       x1="333.83936"
       y1="306.4407"
       x2="331.01694"
       y2="335.27454" />
    <linearGradient
       inkscape:collect="always"
       xlink:href="#linearGradient4063"
       id="linearGradient5120"
       gradientUnits="userSpaceOnUse"
       x1="330.67673"
       y1="321.97855"
       x2="356.8414"
       y2="331.99905" />
    <linearGradient
       inkscape:collect="always"
       xlink:href="#linearGradient4083"
       id="linearGradient5150"
       gradientUnits="userSpaceOnUse"
       x1="311.82489"
       y1="530.43066"
       x2="331.83151"
       y2="530.43066" />
    <linearGradient
       inkscape:collect="always"
       xlink:href="#linearGradient4083"
       id="linearGradient5152"
       gradientUnits="userSpaceOnUse"
       x1="311.82489"
       y1="530.43066"
       x2="331.83151"
       y2="530.43066" />
    <linearGradient
       inkscape:collect="always"
       xlink:href="#linearGradient4083"
       id="linearGradient5154"
       gradientUnits="userSpaceOnUse"
       x1="311.82489"
       y1="530.43066"
       x2="331.83151"
       y2="530.43066" />
    <linearGradient
       inkscape:collect="always"
       xlink:href="#linearGradient4116"
       id="linearGradient5156"
       gradientUnits="userSpaceOnUse"
       gradientTransform="translate(-90.751884,-539.70689)"
       x1="157.43237"
       y1="394.90314"
       x2="283.55716"
       y2="529.97296" />
    <linearGradient
       inkscape:collect="always"
       xlink:href="#linearGradient4071"
       id="linearGradient5158"
       gradientUnits="userSpaceOnUse"
       gradientTransform="translate(-90.751884,-539.70689)"
       x1="437.047"
       y1="396.70428"
       x2="455.04944"
       y2="369.04291" />
    <linearGradient
       inkscape:collect="always"
       xlink:href="#linearGradient4103"
       id="linearGradient5160"
       gradientUnits="userSpaceOnUse"
       gradientTransform="translate(-90.751884,-539.70689)"
       x1="310.13809"
       y1="212.26282"
       x2="505.25244"
       y2="303.42978" />
    <linearGradient
       inkscape:collect="always"
       xlink:href="#linearGradient4095"
       id="linearGradient5162"
       gradientUnits="userSpaceOnUse"
       gradientTransform="translate(-90.751884,-539.70689)"
       x1="431.97806"
       y1="390.33661"
       x2="122.69199"
       y2="306.83789" />
    <linearGradient
       inkscape:collect="always"
       xlink:href="#linearGradient4039"
       id="linearGradient5164"
       gradientUnits="userSpaceOnUse"
       x1="333.83936"
       y1="306.4407"
       x2="331.01694"
       y2="335.27454" />
    <linearGradient
       inkscape:collect="always"
       xlink:href="#linearGradient4039"
       id="linearGradient5166"
       gradientUnits="userSpaceOnUse"
       x1="333.83936"
       y1="306.4407"
       x2="331.01694"
       y2="335.27454" />
    <linearGradient
       inkscape:collect="always"
       xlink:href="#linearGradient4039"
       id="linearGradient5168"
       gradientUnits="userSpaceOnUse"
       x1="333.83936"
       y1="306.4407"
       x2="331.01694"
       y2="335.27454" />
    <linearGradient
       inkscape:collect="always"
       xlink:href="#linearGradient4039"
       id="linearGradient5170"
       gradientUnits="userSpaceOnUse"
       x1="333.83936"
       y1="306.4407"
       x2="331.01694"
       y2="335.27454" />
    <linearGradient
       inkscape:collect="always"
       xlink:href="#linearGradient4039"
       id="linearGradient5172"
       gradientUnits="userSpaceOnUse"
       x1="333.83936"
       y1="306.4407"
       x2="331.01694"
       y2="335.27454" />
    <linearGradient
       inkscape:collect="always"
       xlink:href="#linearGradient4063"
       id="linearGradient5174"
       gradientUnits="userSpaceOnUse"
       x1="330.67673"
       y1="321.97855"
       x2="356.8414"
       y2="331.99905" />
    <linearGradient
       inkscape:collect="always"
       xlink:href="#linearGradient4063"
       id="linearGradient5176"
       gradientUnits="userSpaceOnUse"
       x1="330.67673"
       y1="321.97855"
       x2="356.8414"
       y2="331.99905" />
    <linearGradient
       inkscape:collect="always"
       xlink:href="#linearGradient4063"
       id="linearGradient5178"
       gradientUnits="userSpaceOnUse"
       x1="330.67673"
       y1="321.97855"
       x2="356.8414"
       y2="331.99905" />
    <linearGradient
       inkscape:collect="always"
       xlink:href="#linearGradient4063"
       id="linearGradient5180"
       gradientUnits="userSpaceOnUse"
       x1="330.67673"
       y1="321.97855"
       x2="356.8414"
       y2="331.99905" />
    <linearGradient
       inkscape:collect="always"
       xlink:href="#linearGradient4063"
       id="linearGradient5182"
       gradientUnits="userSpaceOnUse"
       x1="330.67673"
       y1="321.97855"
       x2="356.8414"
       y2="331.99905" />
  </defs>
  <g
     id="g5122"
     transform="matrix(0.05258945,0,0,0.05258945,-0.18490513,23.212617)">
    <g
       transform="translate(-90.751884,-539.70689)"
       id="g4079"
       style="fill:url(#linearGradient5154);fill-opacity:1">
      <rect
         width="18.810034"
         height="31.948452"
         x="313.02148"
         y="510.33075"
         id="rect3914"
         style="fill:url(#linearGradient5150);fill-opacity:1;fill-rule:nonzero;stroke:none" />
      <path
         d="m 322.1875,115.57975 c -5.1559,0 -9.34376,0.90363 -9.34375,2 0,0.0445 0.0177,0.0812 0.0312,0.125 -0.02,0.004 -0.0425,-0.004 -0.0625,0 l 0,26.85775 18.8125,0 0,-26.85775 c -0.0424,-0.0102 -0.0826,-0.0213 -0.125,-0.0312 0.008,-0.0338 0.0312,-0.0595 0.0312,-0.0937 0,-1.09637 -4.18784,-2 -9.34375,-2 z"
         id="rect3917"
         style="fill:url(#linearGradient5152);fill-opacity:1;fill-rule:nonzero;stroke:none" />
    </g>
    <path
       d="m 75.624046,-1.05931 309.875844,0 c 2.0711,0 3.73845,1.51578 3.73845,3.3986 l 0,4.45075 c 0.24522,-0.0151 -317.623034,-0.007 -317.352754,0 l 0,-4.45075 c 0,-1.88282 1.66735,-3.3986 3.73846,-3.3986 z"
       id="rect3842"
       style="fill:#1a1a1a;fill-opacity:1;fill-rule:nonzero;stroke:none" />
    <path
       style="fill:#39b832;fill-opacity:1;fill-rule:evenodd;stroke:none"
       id="path3827"
       d="m 218.43562,-406.11314 c -1.8481,-0.002 -3.69176,0.0357 -5.5625,0.0937 -89.98232,2.79484 -152.276964,93.65648 -155.062504,166.78125 -3.69078,96.88873 54.337474,217.74775 176.625004,219.4375 100.85171,1.39357 159.88153,-77.22883 166.28125,-179.8437 5.42535,-87.78263 -65.85083,-206.33253 -182.28125,-206.46875 z m 3.15625,25.28125 c 80.59653,-0.33109 155.41371,89.27004 154.4375,179.25 -1.15219,106.201 -80.61359,173.59798 -151.84375,158.28125 C 116.28955,-66.50169 90.283376,-164.07412 87.623116,-234.51939 c -2.50381,-67.10566 48.716064,-142.9845 130.125004,-146.21875 1.28194,-0.0509 2.56444,-0.0885 3.84375,-0.0937 z" />
    <path
       style="fill:#1a1a1a;fill-rule:evenodd;stroke:none"
       id="path3844"
       d="m 365.01914,-271.18365 c 0,0 9.84643,0.013 9.10037,69.60176 -1.13857,106.201 -79.66101,173.59798 -150.04947,158.28125 -3.29925,-0.71792 -6.51968,-1.48641 -9.66567,-2.34375 51.29588,21.40997 153.78913,-8.46835 168.18905,-138.15796 7.56342,-87.11565 -17.57428,-87.3813 -17.57428,-87.3813 z" />
    <path
       style="fill:url(#linearGradient5156);fill-opacity:1;fill-rule:evenodd;stroke:none"
       id="path3846"
       d="m 128.40437,-374.08189 c -42.467724,33.56578 -68.804364,87.86958 -70.593754,134.84375 -3.06364,80.42522 36.402,177.34825 119.843754,208.9375 C 84.859506,-79.978 56.460486,-186.91658 66.883696,-258.73959 c 6.45246,-44.46177 31.36239,-91.85711 61.520674,-115.3423 z" />
    <path
       d="m 356.65437,-169.48814 -11.03125,19.84375 11.57866,6.83806 c 0.008,-0.0118 0.0232,-0.0194 0.0312,-0.0312 1.00755,0.61072 4.38837,-3.38665 7.5625,-8.90625 3.05511,-5.31261 4.80318,-10.10228 4.03125,-11 0.0162,-0.0319 0.0464,-0.062 0.0625,-0.0937 l -12.23491,-6.65056 z"
       id="path3910"
       style="fill:url(#linearGradient5158);fill-opacity:1;fill-rule:evenodd;stroke:none" />
    <path
       style="fill:#0069a8;fill-opacity:1;fill-rule:evenodd;stroke:none"
       id="path3883"
       d="m 272.40437,-367.89439 c -75.15994,0.38997 -172.527814,72.66066 -176.750004,159.0625 -2.44373,49.54283 33.971544,116.46425 118.906254,114.90625 93.51736,-1.7007 173.00002,-89.773 176.75,-161.5 2.76212,-52.02848 -33.93742,-112.9096 -118.90625,-112.46875 z m 8.1875,31.3125 c 1.28581,-0.0108 2.55654,0.005 3.84375,0.0312 44.69809,0.91331 91.97238,22.26666 78.75,98 -11.59302,66.40099 -67.31019,125.10438 -158.28125,117.3125 -57.41063,-4.9173 -79.02285,-37.32101 -80.34375,-72.31245 -2.59055,-68.62461 75.02547,-142.34967 156.03125,-143.03125 z" />
    <path
       style="fill:#1a1a1a;fill-rule:evenodd;stroke:none"
       id="path3879"
       d="m 272.40437,-367.89439 c -75.15994,0.38997 -172.527814,72.66066 -176.750004,159.0625 -0.84597,17.15067 2.97524,36.37094 11.843754,54.125 -36.145714,-122.46385 139.87135,-261.2269 253.31202,-180.53656 -23.93569,-26.737 -64.21657,-32.94058 -88.40577,-32.65094 z" />
    <path
       style="fill:#1a1a1a;fill-rule:evenodd;stroke:none"
       id="path3881"
       d="m 345.65379,-316.04154 -0.0599,0.12414 c 24.07655,30.11797 20.34536,61.02795 17.24716,77.88367 -12.10992,65.71178 -66.96558,124.58747 -157.93664,116.79559 -42.41801,-3.6332 -65.28728,-22.27467 -74.875,-45.875 3.26481,20.47452 19.50059,58.31184 94.96875,57.90625 117.22612,-0.62569 185.87866,-142.42292 120.65567,-206.83465 z" />
    <path
       style="fill:#b00c0c;fill-opacity:1;fill-rule:evenodd;stroke:none"
       id="path3991"
       d="m 145.43562,-260.11314 c -2.6531,9.49584 -4.19297,19.82302 -4,31.21875 1.21835,72.72521 71.96434,117.29733 122.9375,117.28125 70.62721,-0.022 103.0328,-51.59134 106.03125,-94 5.64871,-79.1557 -58.86387,-121.44684 -111.40625,-128.875 -2.82616,0.46548 -5.67178,0.80975 -8.46875,1.4375 -4.93488,1.10759 -9.81037,2.4484 -14.625,4.03125 -4.81463,1.58285 -9.56188,3.41754 -14.21875,5.4375 -4.65687,2.01996 -9.2259,4.23734 -13.6875,6.65625 -4.4616,2.41891 -8.83368,5.0328 -13.0625,7.8125 -4.22882,2.7797 -8.32272,5.71016 -12.28125,8.8125 -3.95853,3.10234 -7.78676,6.36318 -11.4375,9.75 -3.65074,3.38682 -7.13206,6.89811 -10.4375,10.53125 -3.30544,3.63314 -6.42112,7.40869 -9.34375,11.25 -2.14823,2.8235 -4.07617,5.73817 -6,8.65625 z m 107.6875,-49.125 c 41.584,-0.48431 95.6437,49.18681 94,100.40625 -1.01253,31.55099 -29.49841,70.79028 -77.9375,71.53125 -67.90678,1.05631 -97.67833,-51.85432 -99.625,-92.40625 -2.04189,-42.53559 24.95576,-78.84866 83.5625,-79.53125 z" />
    <path
       style="fill:url(#linearGradient5160);fill-opacity:1;fill-rule:evenodd;stroke:none"
       id="path3988"
       d="m 226.02937,-325.23814 c 74.40551,-14.36184 133.82649,56.45967 144.71875,104.09375 -0.44711,-5.0014 -1.49871,-13.84274 -2.34375,-17.96875 -11.6746,-57.70091 -64.81547,-89.09409 -109.375,-95.40625 -2.83814,0.46674 -5.69128,0.83836 -8.5,1.46875 -4.93488,1.10759 -9.81037,2.4484 -14.625,4.03125 -3.34434,1.09948 -6.60402,2.46806 -9.875,3.78125 z" />
    <path
       style="fill:url(#linearGradient5162);fill-opacity:1;fill-rule:evenodd;stroke:none"
       id="path3894"
       d="m 227.87312,-306.39439 c -71.05682,13.61342 -76.70492,82.6576 -55.03125,126.875 16.86612,34.4093 92.59488,77.73264 151.04407,25.73718 22.6526,-20.15139 22.37559,-36.07814 23.09601,-51.18657 -0.72975,30.46254 -45.49979,69.01889 -77.79633,67.66814 -67.90678,1.05631 -97.67833,-51.85432 -99.625,-92.40625 -1.72151,-35.86154 17.21099,-67.29559 58.3125,-76.6875 z" />
    <g
       transform="translate(-90.751884,-539.70689)"
       id="g4027"
       style="fill:url(#linearGradient5172);fill-opacity:1">
      <path
         d="m 137.27828,287.62641 c -5.49855,6.75258 -5.1547,15.07496 -1.18194,24.19536 l 13.93694,1.39598 c 5.58403,-3.03589 5.44508,-21.07257 1.16185,-24.13826 l -13.91685,-1.45308 z"
         id="path3902"
         style="fill:url(#linearGradient5164);fill-opacity:1;fill-rule:evenodd;stroke:none" />
      <path
         d="m 468.4155,345.76288 -5.56505,-0.33028 c 3.35703,-5.96464 6.14023,-11.8473 8.73396,-17.70289 2.33423,3.0345 2.14615,15.39266 -3.16891,18.03317 z"
         id="path3904"
         style="fill:url(#linearGradient5166);fill-opacity:1;fill-rule:evenodd;stroke:none" />
      <path
         d="m 178.56976,291.08363 c -0.60495,8.53174 -0.18464,16.64203 0.35229,25.13464 l 8.96804,0.56247 c 11.77749,-2.02305 13.56437,-17.02544 6.06097,-23.69288 l -15.3813,-2.00423 z"
         id="path4006"
         style="fill:url(#linearGradient5168);fill-opacity:1;fill-rule:evenodd;stroke:none" />
      <path
         d="m 508.40858,347.55245 -17.46961,-0.87493 c 0.48509,-6.00767 0.9267,-12.08055 0.76539,-19.05782 l 18.36355,1.36713 c 4.76127,3.02632 3.3445,16.54757 -1.65933,18.56562 z"
         id="path4008"
         style="fill:url(#linearGradient5170);fill-opacity:1;fill-rule:evenodd;stroke:none" />
    </g>
    <g
       transform="translate(-90.751884,-539.70689)"
       id="g4033"
       style="fill:url(#linearGradient5182);fill-opacity:1">
      <path
         d="m 303.49851,445.74308 -7.06194,15.94996 c -2.55507,3.3623 -16.87731,-1.10237 -15.97893,-7.16296 l 4.14406,-9.78473 c 8.03374,0.98591 13.23198,0.9334 18.89681,0.99773 z"
         id="path4012"
         style="fill:url(#linearGradient5174);fill-opacity:1;fill-rule:evenodd;stroke:none" />
      <path
         d="m 314.93428,420.16302 -2.46287,5.13457 c -2.29599,6.92823 -19.23397,0.94098 -17.98511,-3.95356 l 3.69862,-9.03487 c 6.78966,3.52669 11.76647,5.86683 16.74936,7.85386 z"
         id="path4014"
         style="fill:url(#linearGradient5176);fill-opacity:1;fill-rule:evenodd;stroke:none" />
      <path
         d="m 397.58594,223.35903 6.49036,-16.44086 c -7.04775,-1.85537 -14.39053,-2.97316 -21.98156,-3.47031 l -4.66157,13.05137 c -1.21094,4.70605 17.42955,12.91035 20.15277,6.8598 z"
         id="path4016"
         style="fill:url(#linearGradient5178);fill-opacity:1;fill-rule:evenodd;stroke:none" />
      <path
         d="m 413.58188,181.46966 9.03308,-23.37615 c -5.06729,-6.57304 -12.93947,-9.085 -20.38691,-9.36695 l -9.82396,26.64566 c -0.008,3.24845 13.91175,8.84091 21.17779,6.09744 z"
         id="path4018"
         style="fill:url(#linearGradient5180);fill-opacity:1;fill-rule:evenodd;stroke:none" />
    </g>
    <path
       d="m 50.957741,-239.6867 a 4.8849252,12.131792 3.0311158 1 1 -9.756182,-0.51661 4.8849252,12.131792 3.0311158 0 1 9.756182,0.51661 z"
       id="path4020"
       style="fill:#333333;fill-opacity:1;fill-rule:nonzero;stroke:none" />
    <path
       d="m 322.98632,-390.15303 a 11.119797,4.5106828 22.887019 0 1 -3.05159,8.50162 11.119797,4.5106828 22.887019 1 1 3.05159,-8.50162 z"
       id="path4022"
       style="fill:#808080;fill-opacity:1;fill-rule:nonzero;stroke:none" />
  </g>
</svg>
